<?xml version="1.0" encoding="UTF-8" standalone="no"?>
<!-- Created with Inkscape (http://www.inkscape.org/) -->

<svg
   xmlns:svg="http://www.w3.org/2000/svg"
   xmlns="http://www.w3.org/2000/svg"
   xmlns:inkscape="http://www.inkscape.org/namespaces/inkscape"
   version="1.1"
   width="1000"
   height="1000"
   id="svg2">
  <defs
     id="defs4">
    <inkscape:path-effect
       effect="spiro"
       id="path-effect2904" />
  </defs>
  <g
     transform="translate(0,-52.362183)"
     id="layer1">
    <path
       d="M 508,140 605.84424,144.29346 692.16016,156.44141 766.62256,175.34521 828.90625,199.90625 878.68604,229.02588 915.63672,261.60547 939.43311,296.54639 949.75,332.75 946.26221,369.11768 928.64453,404.55078 896.57178,437.95068 849.71875,468.21875 787.76025,494.25635 710.37109,514.96484 617.22607,529.24561 508,536 398.63623,533.79346 305.08984,522.75391 227.05322,504.12646 164.21875,479.15625 116.27881,449.08838 82.925781,415.16797 63.852051,378.64014 58.75,340.75 67.312012,302.74268 89.230469,265.86328 124.19775,231.35693 171.90625,200.46875 232.04834,174.44385 304.31641,154.52734 388.40283,141.96436 484,138"
       transform="translate(0,52.362183)"
       id="path4039"
       style="fill:none;stroke:#000000;stroke-width:1px;stroke-linecap:butt;stroke-linejoin:miter;stroke-opacity:1" />
  </g>
</svg>
