<?xml version="1.0" encoding="UTF-8" standalone="no"?>
<!-- Created with Inkscape (http://www.inkscape.org/) -->

<svg
   xmlns:svg="http://www.w3.org/2000/svg"
   xmlns="http://www.w3.org/2000/svg"
   xmlns:inkscape="http://www.inkscape.org/namespaces/inkscape"
   version="1.1"
   width="1000"
   height="1000"
   id="svg2">
  <defs
     id="defs4">
    <inkscape:path-effect
       effect="spiro"
       id="path-effect2904" />
  </defs>
  <g
     transform="translate(0,-52.362183)"
     id="layer1">
    <path
       d="M 520,310.36218 544.56178,312.78113 568.36189,320.99499 590.8225,334.18933 611.36576,351.54968 629.41385,372.26159 644.38893,395.51062 655.71316,420.4823 662.8087,446.36218 665.09772,472.33581 662.00238,497.58874 652.94485,521.30652 637.34729,542.67468 614.63186,560.87878 584.22072,575.10437 545.53605,584.53698 498,588.36218 455.55103,585.73088 419.56974,577.09996 389.86874,563.33736 366.26064,545.31106 348.55805,523.889 336.57358,499.93914 330.11985,474.32943 329.00946,447.92785 333.05502,421.60234 342.06915,396.22085 355.86445,372.65136 374.25355,351.76181 397.04904,334.42016 424.06353,321.49436 455.10965,313.85239 490,312.36218"
       id="path4039"
       style="fill:none;stroke:#000000;stroke-width:1px;stroke-linecap:butt;stroke-linejoin:miter;stroke-opacity:1" />
  </g>
</svg>
