<?xml version="1.0" encoding="UTF-8" standalone="no"?>
<!-- Created with Inkscape (http://www.inkscape.org/) -->

<svg
   xmlns:svg="http://www.w3.org/2000/svg"
   xmlns="http://www.w3.org/2000/svg"
   xmlns:inkscape="http://www.inkscape.org/namespaces/inkscape"
   version="1.1"
   width="1000"
   height="1000"
   id="svg2">
  <defs
     id="defs4">
    <inkscape:path-effect
       effect="spiro"
       id="path-effect2904" />
  </defs>
  <path
     d="M 277.1005,606.74711 277.1005,589.59077 277.1005,572.43442 277.1005,555.27808 277.1005,538.12173 259.7492,538.12173 242.39788,538.12173 225.04658,538.12173 207.69528,538.12173 207.69528,555.27808 207.69528,572.43442 207.69528,589.59077 207.69528,606.74711 202.62635,606.74711 197.55744,606.74711 192.48851,606.74711 187.4196,606.74711 187.4196,568.92516 187.4196,531.10323 187.4196,493.28127 187.4196,455.45934 192.48851,455.45934 197.55744,455.45934 202.62635,455.45934 207.69528,455.45934 207.69528,472.22575 207.69528,488.99219 207.69528,505.75861 207.69528,522.52505 225.04658,522.52505 242.39788,522.52505 259.7492,522.52505 277.1005,522.52505 277.1005,505.75861 277.1005,488.99219 277.1005,472.22575 277.1005,455.45934 281.97445,455.45934 286.84841,455.45934 291.72239,455.45934 296.59635,455.45934 296.59635,493.28127 296.59635,531.10323 296.59635,568.92516 296.59635,606.74711 291.72239,606.74711 286.84841,606.74711 281.97445,606.74711 277.1005,606.74711"
     id="path4204"
     style="font-size:72px;font-style:normal;font-variant:normal;font-weight:normal;font-stretch:normal;fill:#000000;fill-opacity:1;stroke:none;font-family:Osaka;-inkscape-font-specification:Osaka" />
  <path
     d="M 344.94605,590.3706 362.68728,590.3706 380.42848,590.3706 398.16971,590.3706 415.91093,590.3706 415.91093,594.46472 415.91093,598.55884 415.91093,602.65299 415.91093,606.74711 393.1008,606.74711 370.29064,606.74711 347.4805,606.74711 324.67037,606.74711 324.67037,568.92516 324.67037,531.10323 324.67037,493.28127 324.67037,455.45934 346.11579,455.45934 367.56123,455.45934 389.00665,455.45934 410.4521,455.45934 410.4521,459.55346 410.4521,463.64758 410.4521,467.74173 410.4521,471.83585 394.07558,471.83585 377.69907,471.83585 361.32256,471.83585 344.94605,471.83585 344.94605,483.92326 344.94605,496.0107 344.94605,508.09811 344.94605,520.18555 359.17801,520.18555 373.40997,520.18555 387.64196,520.18555 401.87392,520.18555 401.87392,523.88977 401.87392,527.59396 401.87392,531.29818 401.87392,535.00239 387.64196,535.00239 373.40997,535.00239 359.17801,535.00239 344.94605,535.00239 344.94605,548.84445 344.94605,562.68648 344.94605,576.52854 344.94605,590.3706"
     id="path4206"
     style="font-size:72px;font-style:normal;font-variant:normal;font-weight:normal;font-stretch:normal;fill:#000000;fill-opacity:1;stroke:none;font-family:Osaka;-inkscape-font-specification:Osaka" />
  <path
     d="M 459.58163,590.3706 479.27243,590.3706 498.96323,590.3706 518.65406,590.3706 538.34486,590.3706 538.34486,594.46472 538.34486,598.55884 538.34486,602.65299 538.34486,606.74711 513.58512,606.74711 488.82539,606.74711 464.06568,606.74711 439.30595,606.74711 439.30595,568.92516 439.30595,531.10323 439.30595,493.28127 439.30595,455.45934 444.37486,455.45934 449.44379,455.45934 454.5127,455.45934 459.58163,455.45934 459.58163,489.18715 459.58163,522.91496 459.58163,556.64279 459.58163,590.3706"
     id="path4208"
     style="font-size:72px;font-style:normal;font-variant:normal;font-weight:normal;font-stretch:normal;fill:#000000;fill-opacity:1;stroke:none;font-family:Osaka;-inkscape-font-specification:Osaka" />
  <path
     d="M 575.77688,590.3706 595.46768,590.3706 615.15848,590.3706 634.84931,590.3706 654.54011,590.3706 654.54011,594.46472 654.54011,598.55884 654.54011,602.65299 654.54011,606.74711 629.78038,606.74711 605.02064,606.74711 580.26094,606.74711 555.5012,606.74711 555.5012,568.92516 555.5012,531.10323 555.5012,493.28127 555.5012,455.45934 560.57011,455.45934 565.63904,455.45934 570.70795,455.45934 575.77688,455.45934 575.77688,489.18715 575.77688,522.91496 575.77688,556.64279 575.77688,590.3706"
     id="path4210"
     style="font-size:72px;font-style:normal;font-variant:normal;font-weight:normal;font-stretch:normal;fill:#000000;fill-opacity:1;stroke:none;font-family:Osaka;-inkscape-font-specification:Osaka" />
  <path
     d="M 730.96383,611.42612 717.56042,610.11015 705.42424,606.16223 694.55531,599.5824 684.95363,590.3706 677.10655,579.06302 671.50148,565.41594 668.13847,549.42934 667.01745,531.10323 668.18719,512.14357 671.69645,495.81583 677.54519,482.11998 685.73346,471.05601 695.28642,462.18548 706.00912,455.84932 717.90158,452.04762 730.96383,450.78033 744.36719,452.04762 756.50332,455.84938 767.37227,462.18548 776.97403,471.05601 784.82103,483.28972 790.4261,497.3755 793.78916,513.31334 794.91021,531.10323 793.78916,549.42934 790.42608,565.41594 784.82103,579.06302 776.97403,590.3706 767.66471,599.5824 756.89325,606.16223 744.6596,610.11015 730.96383,611.42612"
     id="path4212"
     style="font-size:72px;font-style:normal;font-variant:normal;font-weight:normal;font-stretch:normal;fill:#000000;fill-opacity:1;stroke:none;font-family:Osaka;-inkscape-font-specification:Osaka" />
  <path
     d="M 273.39989,845.76764 265.60155,813.9894 257.80321,782.21117 250.00488,750.43296 242.20654,718.65472 233.82331,750.43296 225.44009,782.21117 217.0569,813.9894 208.67368,845.76764 203.79972,845.76764 198.92574,845.76764 194.05179,845.76764 189.17783,845.76764 180.59966,807.94569 172.02148,770.12375 163.44331,732.3018 154.86514,694.47987 159.54414,694.47987 164.22315,694.47987 168.90215,694.47987 173.58115,694.47987 180.20973,725.67322 186.83833,756.86658 193.4669,788.05993 200.09551,819.25329 208.28375,788.05993 216.47202,756.86658 224.66026,725.67322 232.84853,694.47987 237.72248,694.47987 242.59644,694.47987 247.47042,694.47987 252.34438,694.47987 260.14272,725.67322 267.94105,756.86658 275.73939,788.05993 283.53773,819.25329 290.55624,788.05993 297.57474,756.86658 304.59325,725.67322 311.61175,694.47987 315.90083,694.47987 320.18993,694.47987 324.479,694.47987 328.7681,694.47987 319.99497,732.3018 311.22182,770.12375 302.4487,807.94569 293.67557,845.76764 288.60664,845.76764 283.53773,845.76764 278.4688,845.76764 273.39989,845.76764"
     id="path4214"
     style="font-size:72px;font-style:normal;font-variant:normal;font-weight:normal;font-stretch:normal;fill:#000000;fill-opacity:1;stroke:none;font-family:Osaka;-inkscape-font-specification:Osaka" />
  <path
     d="M 409.09099,850.44665 395.68758,849.13068 383.5514,845.18276 372.68247,838.60293 363.08079,829.39113 355.23371,818.08355 349.62864,804.43647 346.26563,788.44987 345.14461,770.12375 346.31435,751.1641 349.82361,734.83636 355.67236,721.14051 363.86063,710.07654 373.41358,701.20601 384.13628,694.86985 396.02874,691.06814 409.09099,689.80086 422.49435,691.06814 434.63048,694.86991 445.49943,701.20601 455.10119,710.07654 462.94819,722.31025 468.55326,736.39603 471.91632,752.33386 473.03737,770.12375 471.91632,788.44987 468.55324,804.43647 462.94819,818.08355 455.10119,829.39113 445.79187,838.60293 435.02041,845.18276 422.78676,849.13068 409.09099,850.44665"
     id="path4216"
     style="font-size:72px;font-style:normal;font-variant:normal;font-weight:normal;font-stretch:normal;fill:#000000;fill-opacity:1;stroke:none;font-family:Osaka;-inkscape-font-specification:Osaka" />
  <path
     d="M 536.20392,781.04143 531.32996,781.04143 526.45598,781.04143 521.58203,781.04143 516.70807,781.04143 516.70807,797.22299 516.70807,813.40452 516.70807,829.58608 516.70807,845.76764 511.63914,845.76764 506.57023,845.76764 501.5013,845.76764 496.43239,845.76764 496.43239,807.94569 496.43239,770.12375 496.43239,732.3018 496.43239,694.47987 508.1299,694.47987 519.82741,694.47987 531.52491,694.47987 543.22242,694.47987 553.26275,695.16229 562.32828,697.20938 570.41909,700.62113 577.53511,705.39754 582.31155,711.29511 585.7233,718.06995 587.77039,725.72202 588.45279,734.2514 587.96537,741.7086 586.50314,748.48344 584.06617,754.57588 580.65445,759.98591 575.87793,765.49355 570.12662,770.31876 563.40059,774.46163 555.69977,777.92209 558.91654,779.77423 561.54845,781.43139 563.59554,782.89357 565.05777,784.16076 566.56864,785.81795 568.76191,789.22973 571.63757,794.39612 575.19561,801.31711 581.23933,812.42974 587.28302,823.54236 593.32674,834.65502 599.37046,845.76764 593.71668,845.76764 588.06286,845.76764 582.40907,845.76764 576.75528,845.76764 571.4914,835.82475 566.22751,825.88186 560.96365,815.939 555.69977,805.99611 551.84931,798.88015 547.31652,792.34906 542.10138,786.4028 536.20392,781.04143"
     id="path4218"
     style="font-size:72px;font-style:normal;font-variant:normal;font-weight:normal;font-stretch:normal;fill:#000000;fill-opacity:1;stroke:none;font-family:Osaka;-inkscape-font-specification:Osaka" />
  <path
     d="M 637.58233,829.39113 657.27312,829.39113 676.96392,829.39113 696.65475,829.39113 716.34555,829.39113 716.34555,833.48525 716.34555,837.57937 716.34555,841.67352 716.34555,845.76764 691.58582,845.76764 666.82608,845.76764 642.06638,845.76764 617.30664,845.76764 617.30664,807.94569 617.30664,770.12375 617.30664,732.3018 617.30664,694.47987 622.37555,694.47987 627.44448,694.47987 632.51339,694.47987 637.58233,694.47987 637.58233,728.20768 637.58233,761.93548 637.58233,795.66332 637.58233,829.39113"
     id="path4220"
     style="font-size:72px;font-style:normal;font-variant:normal;font-weight:normal;font-stretch:normal;fill:#000000;fill-opacity:1;stroke:none;font-family:Osaka;-inkscape-font-specification:Osaka" />
  <path
     d="M 777.95243,845.76764 766.8398,845.76764 755.72715,845.76764 744.61452,845.76764 733.5019,845.76764 733.5019,807.94569 733.5019,770.12375 733.5019,732.3018 733.5019,694.47987 744.02964,694.47987 754.55741,694.47987 765.08515,694.47987 775.61293,694.47987 792.23308,695.25978 806.22134,697.59931 817.57769,701.49845 826.30213,706.95721 836.87856,718.16741 844.43321,732.30191 848.96603,749.36074 850.47698,769.34392 848.91729,789.37593 844.23823,806.58102 836.43992,820.95919 825.5223,832.51047 816.70037,838.31049 805.83141,842.45336 792.91545,844.93906 777.95243,845.76764"
     id="path4222"
     style="font-size:72px;font-style:normal;font-variant:normal;font-weight:normal;font-stretch:normal;fill:#000000;fill-opacity:1;stroke:none;font-family:Osaka;-inkscape-font-specification:Osaka" />
</svg>
