<?xml version="1.0" encoding="UTF-8" standalone="no"?>
<!-- Created with Inkscape (http://www.inkscape.org/) -->

<svg
   xmlns:svg="http://www.w3.org/2000/svg"
   xmlns="http://www.w3.org/2000/svg"
   xmlns:inkscape="http://www.inkscape.org/namespaces/inkscape"
   version="1.1"
   width="1000"
   height="1000"
   id="svg2">
  <defs
     id="defs4">
    <inkscape:path-effect
       effect="spiro"
       id="path-effect2904" />
  </defs>
  <g
     transform="translate(0,-52.362183)"
     id="layer1">
    <g
       transform="translate(0,52.362183)"
       id="text4197"
       style="font-size:72px;font-style:normal;font-variant:normal;font-weight:normal;font-stretch:normal;fill:#000000;fill-opacity:1;stroke:none;font-family:Osaka;-inkscape-font-specification:Osaka">
      <path
         d="M 399.40625,196 399.40625,189.8125 399.40625,183.625 399.40625,177.4375 399.40625,171.25 393.14844,171.25 386.89062,171.25 380.63281,171.25 374.375,171.25 374.375,177.4375 374.375,183.625 374.375,189.8125 374.375,196 372.54687,196 370.71875,196 368.89062,196 367.0625,196 367.0625,182.35937 367.0625,168.71875 367.0625,155.07812 367.0625,141.4375 368.89062,141.4375 370.71875,141.4375 372.54687,141.4375 374.375,141.4375 374.375,147.48437 374.375,153.53125 374.375,159.57812 374.375,165.625 380.63281,165.625 386.89062,165.625 393.14844,165.625 399.40625,165.625 399.40625,159.57812 399.40625,153.53125 399.40625,147.48437 399.40625,141.4375 401.16406,141.4375 402.92187,141.4375 404.67969,141.4375 406.4375,141.4375 406.4375,155.07812 406.4375,168.71875 406.4375,182.35937 406.4375,196 404.67969,196 402.92187,196 401.16406,196 399.40625,196"
         id="path4204" />
      <path
         d="M 423.875,190.09375 430.27344,190.09375 436.67187,190.09375 443.07031,190.09375 449.46875,190.09375 449.46875,191.57031 449.46875,193.04687 449.46875,194.52344 449.46875,196 441.24219,196 433.01562,196 424.78906,196 416.5625,196 416.5625,182.35937 416.5625,168.71875 416.5625,155.07812 416.5625,141.4375 424.29687,141.4375 432.03125,141.4375 439.76562,141.4375 447.5,141.4375 447.5,142.91406 447.5,144.39062 447.5,145.86719 447.5,147.34375 441.59375,147.34375 435.6875,147.34375 429.78125,147.34375 423.875,147.34375 423.875,151.70312 423.875,156.0625 423.875,160.42187 423.875,164.78125 429.00781,164.78125 434.14062,164.78125 439.27344,164.78125 444.40625,164.78125 444.40625,166.11719 444.40625,167.45312 444.40625,168.78906 444.40625,170.125 439.27344,170.125 434.14062,170.125 429.00781,170.125 423.875,170.125 423.875,175.11719 423.875,180.10937 423.875,185.10156 423.875,190.09375"
         id="path4206" />
      <path
         d="M 465.21875,190.09375 472.32031,190.09375 479.42187,190.09375 486.52344,190.09375 493.625,190.09375 493.625,191.57031 493.625,193.04687 493.625,194.52344 493.625,196 484.69531,196 475.76562,196 466.83594,196 457.90625,196 457.90625,182.35937 457.90625,168.71875 457.90625,155.07812 457.90625,141.4375 459.73437,141.4375 461.5625,141.4375 463.39062,141.4375 465.21875,141.4375 465.21875,153.60156 465.21875,165.76562 465.21875,177.92969 465.21875,190.09375"
         id="path4208" />
      <path
         d="M 507.125,190.09375 514.22656,190.09375 521.32812,190.09375 528.42969,190.09375 535.53125,190.09375 535.53125,191.57031 535.53125,193.04687 535.53125,194.52344 535.53125,196 526.60156,196 517.67187,196 508.74219,196 499.8125,196 499.8125,182.35937 499.8125,168.71875 499.8125,155.07812 499.8125,141.4375 501.64062,141.4375 503.46875,141.4375 505.29687,141.4375 507.125,141.4375 507.125,153.60156 507.125,165.76562 507.125,177.92969 507.125,190.09375"
         id="path4210" />
      <path
         d="M 563.09375,197.6875 558.25976,197.21289 553.8828,195.78906 549.96288,193.41602 546.5,190.09375 543.66992,186.01563 541.64843,181.09376 540.43555,175.32813 540.03125,168.71875 540.45312,161.88088 541.71875,155.99222 543.82812,151.05276 546.78125,147.0625 550.22656,143.86331 554.09374,141.57815 558.3828,140.20705 563.09375,139.75 567.92772,140.20705 572.30466,141.57817 576.22459,143.86331 579.6875,147.0625 582.51755,151.47463 584.53904,156.55472 585.75194,162.30276 586.15625,168.71875 585.75194,175.32813 584.53903,181.09376 582.51755,186.01563 579.6875,190.09375 576.33006,193.41602 572.44529,195.78906 568.03318,197.21289 563.09375,197.6875"
         id="path4212" />
      <path
         d="M 407.5625,286 404.75,274.53906 401.9375,263.07812 399.125,251.61719 396.3125,240.15625 393.28906,251.61719 390.26562,263.07812 387.24219,274.53906 384.21875,286 382.46094,286 380.70312,286 378.94531,286 377.1875,286 374.09375,272.35937 371,258.71875 367.90625,245.07812 364.8125,231.4375 366.5,231.4375 368.1875,231.4375 369.875,231.4375 371.5625,231.4375 373.95312,242.6875 376.34375,253.9375 378.73437,265.1875 381.125,276.4375 384.07812,265.1875 387.03125,253.9375 389.98437,242.6875 392.9375,231.4375 394.69531,231.4375 396.45312,231.4375 398.21094,231.4375 399.96875,231.4375 402.78125,242.6875 405.59375,253.9375 408.40625,265.1875 411.21875,276.4375 413.75,265.1875 416.28125,253.9375 418.8125,242.6875 421.34375,231.4375 422.89062,231.4375 424.4375,231.4375 425.98437,231.4375 427.53125,231.4375 424.36719,245.07812 421.20312,258.71875 418.03906,272.35937 414.875,286 413.04687,286 411.21875,286 409.39062,286 407.5625,286"
         id="path4214" />
      <path
         d="M 456.5,287.6875 451.66601,287.21289 447.28905,285.78906 443.36913,283.41602 439.90625,280.09375 437.07617,276.01563 435.05468,271.09376 433.8418,265.32813 433.4375,258.71875 433.85937,251.88088 435.125,245.99222 437.23437,241.05276 440.1875,237.0625 443.63281,233.86331 447.49999,231.57815 451.78905,230.20705 456.5,229.75 461.33397,230.20705 465.71091,231.57817 469.63084,233.86331 473.09375,237.0625 475.9238,241.47463 477.94529,246.55472 479.15819,252.30276 479.5625,258.71875 479.15819,265.32813 477.94528,271.09376 475.9238,276.01563 473.09375,280.09375 469.73631,283.41602 465.85154,285.78906 461.43943,287.21289 456.5,287.6875"
         id="path4216" />
      <path
         d="M 502.34375,262.65625 500.58594,262.65625 498.82812,262.65625 497.07031,262.65625 495.3125,262.65625 495.3125,268.49219 495.3125,274.32812 495.3125,280.16406 495.3125,286 493.48437,286 491.65625,286 489.82812,286 488,286 488,272.35937 488,258.71875 488,245.07812 488,231.4375 492.21875,231.4375 496.4375,231.4375 500.65625,231.4375 504.875,231.4375 508.49608,231.68362 511.7656,232.42191 514.68358,233.65237 517.25,235.375 518.97264,237.50198 520.2031,239.94535 520.94139,242.7051 521.1875,245.78125 521.01171,248.47072 520.48435,250.91409 519.60545,253.11135 518.375,255.0625 516.65233,257.04885 514.5781,258.78908 512.15233,260.28322 509.375,261.53125 510.53514,262.19923 511.48435,262.79689 512.22264,263.32423 512.75,263.78125 513.2949,264.37892 514.08591,265.60939 515.12303,267.47267 516.40625,269.96875 518.58594,273.97656 520.76562,277.98437 522.94531,281.99219 525.125,286 523.08594,286 521.04687,286 519.00781,286 516.96875,286 515.07031,282.41406 513.17187,278.82812 511.27344,275.24219 509.375,271.65625 507.98632,269.08985 506.35155,266.73439 504.47069,264.58985 502.34375,262.65625"
         id="path4218" />
      <path
         d="M 538.90625,280.09375 546.00781,280.09375 553.10937,280.09375 560.21094,280.09375 567.3125,280.09375 567.3125,281.57031 567.3125,283.04687 567.3125,284.52344 567.3125,286 558.38281,286 549.45312,286 540.52344,286 531.59375,286 531.59375,272.35937 531.59375,258.71875 531.59375,245.07812 531.59375,231.4375 533.42187,231.4375 535.25,231.4375 537.07812,231.4375 538.90625,231.4375 538.90625,243.60156 538.90625,255.76562 538.90625,267.92969 538.90625,280.09375"
         id="path4220" />
      <path
         d="M 589.53125,286 585.52344,286 581.51562,286 577.50781,286 573.5,286 573.5,272.35937 573.5,258.71875 573.5,245.07812 573.5,231.4375 577.29687,231.4375 581.09375,231.4375 584.89062,231.4375 588.6875,231.4375 594.68162,231.71878 599.72654,232.56254 603.82225,233.96878 606.96875,235.9375 610.78318,239.9805 613.50779,245.07816 615.14257,251.23049 615.6875,258.4375 615.12499,265.66212 613.43747,271.8672 610.62498,277.05274 606.6875,281.21875 603.50584,283.31055 599.58591,284.80469 594.92772,285.70117 589.53125,286"
         id="path4222" />
    </g>
  </g>
</svg>
