<?xml version="1.0" encoding="UTF-8" standalone="no"?>
<!-- Created with Inkscape (http://www.inkscape.org/) -->

<svg
   xmlns:svg="http://www.w3.org/2000/svg"
   xmlns="http://www.w3.org/2000/svg"
   version="1.1"
   width="1000"
   height="1000"
   id="svg2973">
  <defs
     id="defs2975" />
  <g
     id="layer1">
    <path
       d="M 780,325.54533 797.79406,329.13779 812.32488,338.93474 822.12183,353.46556 825.71429,371.25962 822.12183,389.05368 812.32488,403.5845 797.79406,413.38145 780,416.97391 762.20594,413.38145 747.67512,403.5845 737.87817,389.05368 734.28571,371.25962 737.87817,353.46556 747.67512,338.93474 762.20594,329.13779 780,325.54533"
       id="path2994"
       style="fill:#ffffff;fill-opacity:1;stroke:#000000;stroke-width:2;stroke-miterlimit:4;stroke-opacity:1" />
    <path
       d="M 640,325.54533 657.79406,329.13779 672.32488,338.93474 682.12183,353.46556 685.71429,371.25962 682.12183,389.05368 672.32488,403.5845 657.79406,413.38145 640,416.97391 622.20594,413.38145 607.67512,403.5845 597.87817,389.05368 594.28571,371.25962 597.87817,353.46556 607.67512,338.93474 622.20594,329.13779 640,325.54533"
       id="path2996"
       style="fill:#ffffff;fill-opacity:1;stroke:#000000;stroke-width:2;stroke-miterlimit:4;stroke-opacity:1" />
    <path
       d="M 500,325.54533 517.79406,329.13779 532.32488,338.93474 542.12183,353.46556 545.71429,371.25962 542.12183,389.05368 532.32488,403.5845 517.79406,413.38145 500,416.97391 482.20594,413.38145 467.67512,403.5845 457.87817,389.05368 454.28571,371.25962 457.87817,353.46556 467.67512,338.93474 482.20594,329.13779 500,325.54533"
       id="path2998"
       style="fill:#ffffff;fill-opacity:1;stroke:#000000;stroke-width:2;stroke-miterlimit:4;stroke-opacity:1" />
    <path
       d="M 360,325.54533 377.79406,329.13779 392.32488,338.93474 402.12183,353.46556 405.71429,371.25962 402.12183,389.05368 392.32488,403.5845 377.79406,413.38145 360,416.97391 342.20594,413.38145 327.67512,403.5845 317.87817,389.05368 314.28571,371.25962 317.87817,353.46556 327.67512,338.93474 342.20594,329.13779 360,325.54533"
       id="path3000"
       style="fill:#ffffff;fill-opacity:1;stroke:#000000;stroke-width:2;stroke-miterlimit:4;stroke-opacity:1" />
    <path
       d="M 220,325.54533 237.79406,329.13779 252.32488,338.93474 262.12183,353.46556 265.71429,371.25962 262.12183,389.05368 252.32488,403.5845 237.79406,413.38145 220,416.97391 202.20594,413.38145 187.67512,403.5845 177.87817,389.05368 174.28571,371.25962 177.87817,353.46556 187.67512,338.93474 202.20594,329.13779 220,325.54533"
       id="path3002"
       style="fill:#ffffff;fill-opacity:1;stroke:#000000;stroke-width:2;stroke-miterlimit:4;stroke-opacity:1" />
    <path
       d="M 220,465.54533 237.79406,469.13779 252.32488,478.93474 262.12183,493.46556 265.71429,511.25962 262.12183,529.05368 252.32488,543.5845 237.79406,553.38145 220,556.97391 202.20594,553.38145 187.67512,543.5845 177.87817,529.05368 174.28571,511.25962 177.87817,493.46556 187.67512,478.93474 202.20594,469.13779 220,465.54533"
       id="path3004"
       style="fill:#ffffff;fill-opacity:1;stroke:#000000;stroke-width:2;stroke-miterlimit:4;stroke-opacity:1" />
    <path
       d="M 360,465.54533 377.79406,469.13779 392.32488,478.93474 402.12183,493.46556 405.71429,511.25962 402.12183,529.05368 392.32488,543.5845 377.79406,553.38145 360,556.97391 342.20594,553.38145 327.67512,543.5845 317.87817,529.05368 314.28571,511.25962 317.87817,493.46556 327.67512,478.93474 342.20594,469.13779 360,465.54533"
       id="path3006"
       style="fill:#ffffff;fill-opacity:1;stroke:#000000;stroke-width:2;stroke-miterlimit:4;stroke-opacity:1" />
    <path
       d="M 500,465.54533 517.79406,469.13779 532.32488,478.93474 542.12183,493.46556 545.71429,511.25962 542.12183,529.05368 532.32488,543.5845 517.79406,553.38145 500,556.97391 482.20594,553.38145 467.67512,543.5845 457.87817,529.05368 454.28571,511.25962 457.87817,493.46556 467.67512,478.93474 482.20594,469.13779 500,465.54533"
       id="path3008"
       style="fill:#ffffff;fill-opacity:1;stroke:#000000;stroke-width:2;stroke-miterlimit:4;stroke-opacity:1" />
    <path
       d="M 640,465.54533 657.79406,469.13779 672.32488,478.93474 682.12183,493.46556 685.71429,511.25962 682.12183,529.05368 672.32488,543.5845 657.79406,553.38145 640,556.97391 622.20594,553.38145 607.67512,543.5845 597.87817,529.05368 594.28571,511.25962 597.87817,493.46556 607.67512,478.93474 622.20594,469.13779 640,465.54533"
       id="path3010"
       style="fill:#ffffff;fill-opacity:1;stroke:#000000;stroke-width:2;stroke-miterlimit:4;stroke-opacity:1" />
    <path
       d="M 780,465.54533 797.79406,469.13779 812.32488,478.93474 822.12183,493.46556 825.71429,511.25962 822.12183,529.05368 812.32488,543.5845 797.79406,553.38145 780,556.97391 762.20594,553.38145 747.67512,543.5845 737.87817,529.05368 734.28571,511.25962 737.87817,493.46556 747.67512,478.93474 762.20594,469.13779 780,465.54533"
       id="path3012"
       style="fill:#ffffff;fill-opacity:1;stroke:#000000;stroke-width:2;stroke-miterlimit:4;stroke-opacity:1" />
    <path
       d="M 780,605.54533 797.79406,609.13779 812.32488,618.93474 822.12183,633.46556 825.71429,651.25962 822.12183,669.05368 812.32488,683.5845 797.79406,693.38145 780,696.97391 762.20594,693.38145 747.67512,683.5845 737.87817,669.05368 734.28571,651.25962 737.87817,633.46556 747.67512,618.93474 762.20594,609.13779 780,605.54533"
       id="path3014"
       style="fill:#ffffff;fill-opacity:1;stroke:#000000;stroke-width:2;stroke-miterlimit:4;stroke-opacity:1" />
    <path
       d="M 640,605.54533 657.79406,609.13779 672.32488,618.93474 682.12183,633.46556 685.71429,651.25962 682.12183,669.05368 672.32488,683.5845 657.79406,693.38145 640,696.97391 622.20594,693.38145 607.67512,683.5845 597.87817,669.05368 594.28571,651.25962 597.87817,633.46556 607.67512,618.93474 622.20594,609.13779 640,605.54533"
       id="path3016"
       style="fill:#ffffff;fill-opacity:1;stroke:#000000;stroke-width:2;stroke-miterlimit:4;stroke-opacity:1" />
    <path
       d="M 500,605.54533 517.79406,609.13779 532.32488,618.93474 542.12183,633.46556 545.71429,651.25962 542.12183,669.05368 532.32488,683.5845 517.79406,693.38145 500,696.97391 482.20594,693.38145 467.67512,683.5845 457.87817,669.05368 454.28571,651.25962 457.87817,633.46556 467.67512,618.93474 482.20594,609.13779 500,605.54533"
       id="path3018"
       style="fill:#ffffff;fill-opacity:1;stroke:#000000;stroke-width:2;stroke-miterlimit:4;stroke-opacity:1" />
    <path
       d="M 360,605.54533 377.79406,609.13779 392.32488,618.93474 402.12183,633.46556 405.71429,651.25962 402.12183,669.05368 392.32488,683.5845 377.79406,693.38145 360,696.97391 342.20594,693.38145 327.67512,683.5845 317.87817,669.05368 314.28571,651.25962 317.87817,633.46556 327.67512,618.93474 342.20594,609.13779 360,605.54533"
       id="path3020"
       style="fill:#ffffff;fill-opacity:1;stroke:#000000;stroke-width:2;stroke-miterlimit:4;stroke-opacity:1" />
    <path
       d="M 220,605.54533 237.79406,609.13779 252.32488,618.93474 262.12183,633.46556 265.71429,651.25962 262.12183,669.05368 252.32488,683.5845 237.79406,693.38145 220,696.97391 202.20594,693.38145 187.67512,683.5845 177.87817,669.05368 174.28571,651.25962 177.87817,633.46556 187.67512,618.93474 202.20594,609.13779 220,605.54533"
       id="path3022"
       style="fill:#ffffff;fill-opacity:1;stroke:#000000;stroke-width:2;stroke-miterlimit:4;stroke-opacity:1" />
    <path
       d="M 220,745.54533 237.79406,749.13779 252.32488,758.93474 262.12183,773.46556 265.71429,791.25962 262.12183,809.05368 252.32488,823.5845 237.79406,833.38145 220,836.97391 202.20594,833.38145 187.67512,823.5845 177.87817,809.05368 174.28571,791.25962 177.87817,773.46556 187.67512,758.93474 202.20594,749.13779 220,745.54533"
       id="path3024"
       style="fill:#ffffff;fill-opacity:1;stroke:#000000;stroke-width:2;stroke-miterlimit:4;stroke-opacity:1" />
    <path
       d="M 360,745.54533 377.79406,749.13779 392.32488,758.93474 402.12183,773.46556 405.71429,791.25962 402.12183,809.05368 392.32488,823.5845 377.79406,833.38145 360,836.97391 342.20594,833.38145 327.67512,823.5845 317.87817,809.05368 314.28571,791.25962 317.87817,773.46556 327.67512,758.93474 342.20594,749.13779 360,745.54533"
       id="path3026"
       style="fill:#ffffff;fill-opacity:1;stroke:#000000;stroke-width:2;stroke-miterlimit:4;stroke-opacity:1" />
    <path
       d="M 500,745.54533 517.79406,749.13779 532.32488,758.93474 542.12183,773.46556 545.71429,791.25962 542.12183,809.05368 532.32488,823.5845 517.79406,833.38145 500,836.97391 482.20594,833.38145 467.67512,823.5845 457.87817,809.05368 454.28571,791.25962 457.87817,773.46556 467.67512,758.93474 482.20594,749.13779 500,745.54533"
       id="path3028"
       style="fill:#ffffff;fill-opacity:1;stroke:#000000;stroke-width:2;stroke-miterlimit:4;stroke-opacity:1" />
    <path
       d="M 640,745.54533 657.79406,749.13779 672.32488,758.93474 682.12183,773.46556 685.71429,791.25962 682.12183,809.05368 672.32488,823.5845 657.79406,833.38145 640,836.97391 622.20594,833.38145 607.67512,823.5845 597.87817,809.05368 594.28571,791.25962 597.87817,773.46556 607.67512,758.93474 622.20594,749.13779 640,745.54533"
       id="path3030"
       style="fill:#ffffff;fill-opacity:1;stroke:#000000;stroke-width:2;stroke-miterlimit:4;stroke-opacity:1" />
    <path
       d="M 780,745.54533 797.79406,749.13779 812.32488,758.93474 822.12183,773.46556 825.71429,791.25962 822.12183,809.05368 812.32488,823.5845 797.79406,833.38145 780,836.97391 762.20594,833.38145 747.67512,823.5845 737.87817,809.05368 734.28571,791.25962 737.87817,773.46556 747.67512,758.93474 762.20594,749.13779 780,745.54533"
       id="path3032"
       style="fill:#ffffff;fill-opacity:1;stroke:#000000;stroke-width:2;stroke-miterlimit:4;stroke-opacity:1" />
    <path
       d="M 780,885.54533 797.79406,889.13779 812.32488,898.93474 822.12183,913.46556 825.71429,931.25962 822.12183,949.05368 812.32488,963.5845 797.79406,973.38145 780,976.97391 762.20594,973.38145 747.67512,963.5845 737.87817,949.05368 734.28571,931.25962 737.87817,913.46556 747.67512,898.93474 762.20594,889.13779 780,885.54533"
       id="path3034"
       style="fill:#ffffff;fill-opacity:1;stroke:#000000;stroke-width:2;stroke-miterlimit:4;stroke-opacity:1" />
    <path
       d="M 640,885.54533 657.79406,889.13779 672.32488,898.93474 682.12183,913.46556 685.71429,931.25962 682.12183,949.05368 672.32488,963.5845 657.79406,973.38145 640,976.97391 622.20594,973.38145 607.67512,963.5845 597.87817,949.05368 594.28571,931.25962 597.87817,913.46556 607.67512,898.93474 622.20594,889.13779 640,885.54533"
       id="path3036"
       style="fill:#ffffff;fill-opacity:1;stroke:#000000;stroke-width:2;stroke-miterlimit:4;stroke-opacity:1" />
    <path
       d="M 500,885.54533 517.79406,889.13779 532.32488,898.93474 542.12183,913.46556 545.71429,931.25962 542.12183,949.05368 532.32488,963.5845 517.79406,973.38145 500,976.97391 482.20594,973.38145 467.67512,963.5845 457.87817,949.05368 454.28571,931.25962 457.87817,913.46556 467.67512,898.93474 482.20594,889.13779 500,885.54533"
       id="path3038"
       style="fill:#ffffff;fill-opacity:1;stroke:#000000;stroke-width:2;stroke-miterlimit:4;stroke-opacity:1" />
    <path
       d="M 360,885.54533 377.79406,889.13779 392.32488,898.93474 402.12183,913.46556 405.71429,931.25962 402.12183,949.05368 392.32488,963.5845 377.79406,973.38145 360,976.97391 342.20594,973.38145 327.67512,963.5845 317.87817,949.05368 314.28571,931.25962 317.87817,913.46556 327.67512,898.93474 342.20594,889.13779 360,885.54533"
       id="path3040"
       style="fill:#ffffff;fill-opacity:1;stroke:#000000;stroke-width:2;stroke-miterlimit:4;stroke-opacity:1" />
    <path
       d="M 220,885.54533 237.79406,889.13779 252.32488,898.93474 262.12183,913.46556 265.71429,931.25962 262.12183,949.05368 252.32488,963.5845 237.79406,973.38145 220,976.97391 202.20594,973.38145 187.67512,963.5845 177.87817,949.05368 174.28571,931.25962 177.87817,913.46556 187.67512,898.93474 202.20594,889.13779 220,885.54533"
       id="path3042"
       style="fill:#ffffff;fill-opacity:1;stroke:#000000;stroke-width:2;stroke-miterlimit:4;stroke-opacity:1" />
  </g>
</svg>
